# Blender 4.0.1
# www.blender.org
mtllib bear_ears.mtl
o bear_ears
v -0.335687 2.074583 0.041392
v -0.327906 2.077036 0.103358
v -0.274606 1.880859 0.041392
v -0.266825 1.883312 0.103358
v -0.135840 2.137594 0.076844
v -0.143620 2.135141 0.014879
v -0.074759 1.943871 0.076844
v -0.082539 1.941417 0.014879
v 0.143620 2.135141 0.014879
v 0.135840 2.137594 0.076844
v 0.082539 1.941417 0.014879
v 0.074759 1.943871 0.076844
v 0.327906 2.077036 0.103357
v 0.335687 2.074583 0.041392
v 0.266825 1.883312 0.103357
v 0.274606 1.880859 0.041392
vn 0.1245 0.0392 0.9914
vn -0.9456 -0.2981 0.1305
vn -0.1245 -0.0392 -0.9914
vn 0.9456 0.2981 -0.1305
vn -0.3007 0.9537 -0.0000
vn 0.3007 -0.9537 -0.0000
vn -0.1245 0.0392 0.9914
vn -0.9456 0.2981 -0.1305
vn 0.1245 -0.0392 -0.9914
vn 0.9456 -0.2981 0.1305
vn 0.3007 0.9537 -0.0000
vn -0.3007 -0.9537 -0.0000
vt 0.656250 0.390625
vt 0.656250 0.437500
vt 0.609375 0.437500
vt 0.609375 0.390625
vt 0.078125 0.328125
vt 0.078125 0.375000
vt 0.062500 0.375000
vt 0.062500 0.328125
vt 0.656250 0.343750
vt 0.609375 0.343750
vt 0.640625 0.890625
vt 0.640625 0.937500
vt 0.625000 0.937500
vt 0.625000 0.890625
vt 0.078125 0.359375
vt 0.125000 0.359375
vt 0.125000 0.375000
vt 0.625000 0.875000
vt 0.671875 0.890625
vt 0.671875 0.875000
vt 0.562500 0.437500
vt 0.562500 0.390625
vt 0.015625 0.328125
vt 0.015625 0.375000
vt 0.000000 0.375000
vt 0.000000 0.328125
vt 0.562500 0.343750
vt 0.640625 0.953125
vt 0.640625 1.000000
vt 0.625000 1.000000
vt 0.625000 0.953125
vt 0.015625 0.359375
vt 0.062500 0.359375
vt 0.671875 0.953125
vt 0.671875 0.937500
s 0
usemtl bear_ears
f 7/1/1 5/2/1 2/3/1
f 4/4/1 7/1/1 2/3/1
f 4/5/2 2/6/2 1/7/2
f 3/8/2 4/5/2 1/7/2
f 3/9/3 1/1/3 6/4/3
f 8/10/3 3/9/3 6/4/3
f 8/11/4 6/12/4 5/13/4
f 7/14/4 8/11/4 5/13/4
f 1/6/5 2/15/5 5/16/5
f 6/17/5 1/6/5 5/16/5
f 4/18/6 3/14/6 8/19/6
f 7/20/6 4/18/6 8/19/6
f 15/4/7 13/3/7 10/21/7
f 12/22/7 15/4/7 10/21/7
f 12/23/8 10/24/8 9/25/8
f 11/26/8 12/23/8 9/25/8
f 11/10/9 9/4/9 14/22/9
f 16/27/9 11/10/9 14/22/9
f 16/28/10 14/29/10 13/30/10
f 15/31/10 16/28/10 13/30/10
f 9/24/11 10/32/11 13/33/11
f 14/7/11 9/24/11 13/33/11
f 12/13/12 11/31/12 16/34/12
f 15/35/12 12/13/12 16/34/12
